# xmcd
#
# Track frame offsets:
#	150
#	12562
#	25687
#	40037
#	52287
#	66907
#	80177
#	92500
#	103662
#	115112
#	131350
#	144487
#	157612
#	172730
#	185802
#	198512
#	212387
#	225947
#	239127
#	253612
#	270212
#	286772
#	301767
#
# Disc length: 4227 seconds
# Revision: 2
# Processed by: cddbd v1.5.2PL0 Copyright (c) Steve Scherf et al.
# Submitted via: dBpowerAMP V12.0
#
DISCID=2f108117
DTITLE=Various Artist - Four Women Blues
DYEAR=1997
DGENRE=Blues
TTITLE0=Memphis Minnie - I'm Goin' Back Home
TTITLE1=Memphis Minnie - Bumble Bee Blues
TTITLE2=Memphis Minnie - Meningitis Blues
TTITLE3=Memphis Minnie - I Never Told a Lie
TTITLE4=Memphis Minnie - Don't Want No Woman
TTITLE5=Memphis Minnie - Georgia Skin
TTITLE6=Memphis Minnie - You Wrecked My Happy Home
TTITLE7=Memphis Minnie - I'm Waiting on You
TTITLE8=Memphis Minnie - Keep on Goin'
TTITLE9=Memphis Minnie - When the Sun Goes Down, Part 2
TTITLE10=Memphis Minnie - Hustlin' Woman Blues
TTITLE11=Memphis Minnie - Selling My Pork Chops
TTITLE12=Memphis Minnie - Doctor, Doctor Blues
TTITLE13=Mississippi Matilda - Hardworking Woman Blues
TTITLE14=Mississippi Matilda - Happy Home Blues
TTITLE15=Kansas City Kitty - Christmas Mornin' Blues
TTITLE16=Kansas City Kitty - Double Trouble Blues
TTITLE17=Kansas City Kitty - Leave My Man Alone
TTITLE18=Kansas City Kitty - Mistreatin' Easy Rider
TTITLE19=Rosie Mae Moore - Staggering Blues
TTITLE20=Rosie Mae Moore - Ha Ha Blues
TTITLE21=Rosie Mae Moore - School Girl Blues
TTITLE22=Rosie Mae Moore - Stranger Blues
EXTD=
EXTT0=
EXTT1=
EXTT2=
EXTT3=
EXTT4=
EXTT5=
EXTT6=
EXTT7=
EXTT8=
EXTT9=
EXTT10=
EXTT11=
EXTT12=
EXTT13=
EXTT14=
EXTT15=
EXTT16=
EXTT17=
EXTT18=
EXTT19=
EXTT20=
EXTT21=
EXTT22=
PLAYORDER=
